<?xml version="1.0" standalone="no"?>
<!DOCTYPE svg PUBLIC "-//W3C//DTD SVG 20010904//EN"
 "http://www.w3.org/TR/2001/REC-SVG-20010904/DTD/svg10.dtd">
<svg version="1.0" xmlns="http://www.w3.org/2000/svg"
 width="512.000000pt" height="512.000000pt" viewBox="0 0 512.000000 512.000000"
 preserveAspectRatio="xMidYMid meet">
<metadata>
Created by potrace 1.14, written by Peter Selinger 2001-2017
</metadata>
<g transform="translate(0.000000,512.000000) scale(0.100000,-0.100000)"
fill="#000000" stroke="none">
<path d="M2120 4953 c-326 -49 -606 -280 -711 -586 -37 -110 -47 -175 -49
-309 l0 -58 -270 0 c-295 0 -324 -4 -407 -62 -87 -59 -127 -148 -137 -303 -4
-55 -9 -127 -11 -160 -3 -33 -7 -96 -10 -140 -3 -44 -7 -114 -10 -155 -3 -41
-8 -109 -10 -150 -3 -41 -7 -102 -10 -135 -2 -33 -7 -100 -10 -150 -4 -49 -8
-117 -10 -150 -3 -33 -7 -96 -10 -140 -10 -146 -15 -219 -20 -300 -7 -91 -12
-174 -20 -290 -3 -44 -7 -109 -10 -145 -5 -70 -13 -184 -20 -295 -10 -150 -15
-232 -20 -285 -3 -30 -7 -100 -10 -155 -3 -55 -8 -118 -10 -140 -9 -80 -19
-262 -19 -350 0 -76 3 -98 25 -146 31 -65 85 -121 154 -158 l50 -26 1985 0
1985 0 55 26 c69 33 123 87 156 158 33 68 35 142 10 311 -10 63 -19 130 -22
147 -2 18 -6 48 -8 65 -3 18 -8 56 -11 83 -3 28 -8 61 -10 75 -3 14 -7 48 -10
75 -3 28 -10 75 -15 105 -5 30 -12 79 -15 109 -4 30 -8 61 -10 70 -1 9 -6 43
-10 76 -4 33 -9 69 -10 80 -2 11 -10 74 -19 140 -9 66 -18 131 -20 145 -4 23
-12 80 -21 155 -4 26 -19 139 -30 215 -11 81 -15 110 -20 150 -4 25 -8 56 -10
70 -3 21 -16 112 -30 215 -1 11 -5 45 -9 75 -4 30 -9 66 -11 80 -2 14 -7 45
-10 70 -3 25 -10 79 -16 120 -14 102 -16 119 -23 165 -4 22 -8 56 -10 75 -9
74 -18 136 -22 160 -2 14 -7 45 -9 70 -3 25 -7 59 -10 75 -3 17 -7 46 -9 65
-31 225 -58 285 -163 358 -70 49 -95 51 -597 52 -258 0 -471 1 -472 3 -1 1 -4
54 -8 117 -12 230 -96 422 -255 581 -174 173 -383 258 -631 256 -47 0 -96 -2
-110 -4z m286 -339 c175 -58 310 -194 369 -369 9 -27 19 -94 22 -147 l6 -98
-562 0 -561 0 0 63 c0 188 88 365 233 471 52 38 160 86 210 92 23 4 44 8 47
11 10 11 188 -7 236 -23z"/>
</g>
</svg>
